<?xml version="1.0" encoding="UTF-8"?>
<svg version="1.1" xmlns="http://www.w3.org/2000/svg" width="512" height="512">
<path d="M0 0 C0.67722394 -0.00235223 1.35444788 -0.00470446 2.05219376 -0.00712797 C4.32596751 -0.01379539 6.59968381 -0.01336043 8.87346649 -0.01294994 C10.51843779 -0.01624998 12.16340828 -0.01997584 13.80837774 -0.02409142 C18.33261377 -0.03410372 22.85683653 -0.03782698 27.38108206 -0.04048073 C32.25927639 -0.04438608 37.13746025 -0.05396428 42.01564789 -0.0626936 C53.79867373 -0.08245177 65.58170043 -0.09252353 77.3647387 -0.10142139 C82.91486431 -0.10580546 88.46498897 -0.11117197 94.01511383 -0.11641026 C112.46733909 -0.1334221 130.91956376 -0.14791592 149.37179565 -0.155159 C154.15974681 -0.15706886 158.94769797 -0.1589892 163.73564911 -0.16094494 C165.52066166 -0.16167055 165.52066166 -0.16167055 167.34173506 -0.16241082 C186.61584646 -0.17070979 205.88989577 -0.19604468 225.16398007 -0.22852562 C244.95636958 -0.26160782 264.74872755 -0.27960882 284.54114485 -0.28280324 C295.65216643 -0.28496728 306.76309748 -0.29370056 317.8740921 -0.31926441 C327.33745496 -0.34098726 336.80070528 -0.34901401 346.26409024 -0.33929763 C351.0900085 -0.33475752 355.91569464 -0.33662243 360.74158096 -0.35605907 C365.16593825 -0.37372414 369.58989467 -0.372666 374.01425642 -0.35716178 C375.60854526 -0.35479078 377.2028621 -0.35908276 378.79710823 -0.37099043 C393.46108592 -0.47366852 406.20598683 1.94733571 417.32646942 12.09906483 C424.60469489 19.59414618 429.28676936 29.590898 429.30834675 40.12193012 C429.31280459 41.13267865 429.31726244 42.14342717 429.32185537 43.18480444 C429.32157882 44.84761174 429.32157882 44.84761174 429.32129669 46.54401112 C429.32497338 47.72319221 429.32865007 48.9023733 429.33243817 50.11728716 C429.34155679 53.39154509 429.34617292 56.66577357 429.34882748 59.94004202 C429.35273442 63.4712578 429.3623126 67.00245912 429.37104034 70.53366566 C429.39079551 79.06308779 429.40087054 87.5925111 429.40976813 96.12195039 C429.41415327 100.14105096 429.41951956 104.16015023 429.424757 108.17924976 C429.44176963 121.54446864 429.45626246 134.9096867 429.46350574 148.27491474 C429.46541557 151.7426653 429.46733591 155.21041585 429.46929169 158.67816639 C429.46977543 159.54003494 429.47025917 160.40190349 429.47075757 161.28988928 C429.47905285 175.24279993 429.50438113 189.1956247 429.53687236 203.14849788 C429.56997651 217.48176147 429.5879576 231.81498147 429.59114999 246.14828348 C429.59331216 254.19254442 429.6020177 262.2366802 429.62761116 270.28090382 C429.6493642 277.13380979 429.6573461 283.98656021 429.64764438 290.83949679 C429.6431127 294.33269251 429.64491903 297.82556758 429.66440582 301.31871891 C429.68213838 305.11560158 429.67501046 308.91167809 429.66187286 312.7085619 C429.67832673 314.34460054 429.67832673 314.34460054 429.695113 316.01369047 C429.59160638 328.45744467 425.59186317 339.09129642 417.20928192 348.29047108 C408.62147551 356.61427621 398.16438542 360.25092044 386.34825134 360.26844215 C385.33241543 360.2719705 385.33241543 360.2719705 384.29605758 360.27557012 C382.02228384 360.28223754 379.74856754 360.28180258 377.47478485 360.2813921 C375.82981355 360.28469213 374.18484306 360.288418 372.5398736 360.29253358 C368.01563758 360.30254588 363.49141482 360.30626914 358.96716928 360.30892289 C354.08897495 360.31282824 349.21079109 360.32240644 344.33260345 360.33113575 C332.54957761 360.35089392 320.76655091 360.36096568 308.98351264 360.36986354 C303.43338703 360.37424761 297.88326237 360.37961413 292.33313751 360.38485241 C273.88091225 360.40186426 255.42868759 360.41635807 236.97645569 360.42360115 C232.18850453 360.42551102 227.40055337 360.42743135 222.61260223 360.42938709 C220.82758969 360.4301127 220.82758969 360.4301127 219.00651628 360.43085297 C199.73240488 360.43915194 180.45835557 360.46448683 161.18427128 360.49696777 C141.39188177 360.53004997 121.5995238 360.54805098 101.80710649 360.55124539 C90.69608491 360.55340944 79.58515386 360.56214271 68.47415924 360.58770657 C59.01079639 360.60942941 49.54754606 360.61745616 40.0841611 360.60773978 C35.25824285 360.60319967 30.4325567 360.60506458 25.60667038 360.62450123 C21.18231309 360.64216629 16.75835667 360.64110816 12.33399493 360.62560394 C10.73970609 360.62323293 9.14538924 360.62752492 7.55114311 360.63943259 C-7.11283458 360.74211068 -19.85773549 358.32110644 -30.97821808 348.16937733 C-38.25644355 340.67429598 -42.93851802 330.67754416 -42.96009541 320.14651203 C-42.96455325 319.13576351 -42.96901109 318.12501498 -42.97360402 317.08363771 C-42.97341966 315.97509951 -42.9732353 314.86656131 -42.97304535 313.72443104 C-42.97672204 312.54524994 -42.98039873 311.36606885 -42.98418683 310.15115499 C-42.99330545 306.87689706 -42.99792157 303.60266858 -43.00057614 300.32840014 C-43.00448307 296.79718435 -43.01406126 293.26598303 -43.022789 289.7347765 C-43.04254417 281.20535436 -43.05261919 272.67593106 -43.06151679 264.14649177 C-43.06590193 260.12739119 -43.07126822 256.10829193 -43.07650566 252.08919239 C-43.09351829 238.72397351 -43.10801112 225.35875545 -43.1152544 211.99352741 C-43.11716423 208.52577685 -43.11908457 205.0580263 -43.12104034 201.59027576 C-43.12152408 200.72840721 -43.12200782 199.86653866 -43.12250622 198.97855288 C-43.13080151 185.02564223 -43.15612979 171.07281745 -43.18862102 157.11994427 C-43.22172517 142.78668069 -43.23970626 128.45346068 -43.24289864 114.12015867 C-43.24506082 106.07589773 -43.25376635 98.03176195 -43.27935982 89.98753834 C-43.30111285 83.13463236 -43.30909476 76.28188195 -43.29939304 69.42894536 C-43.29486135 65.93574964 -43.29666769 62.44287457 -43.31615448 58.94972324 C-43.33388703 55.15284058 -43.32675912 51.35676406 -43.31362152 47.55988026 C-43.32459077 46.46918783 -43.33556001 45.3784954 -43.34686166 44.25475168 C-43.24335504 31.81099748 -39.24361183 21.17714573 -30.86103058 11.97797108 C-22.27322416 3.65416594 -11.81613408 0.01752172 0 0 Z M-12.67664433 35.17530632 C-14.50067722 39.87163155 -14.24118033 44.48320606 -14.21355438 49.47685719 C-14.21893992 50.63662479 -14.22432546 51.79639238 -14.22987419 52.99130446 C-14.24170603 56.20658062 -14.24008207 59.42152477 -14.23270738 62.63680398 C-14.22797971 66.10587212 -14.24048198 69.57488451 -14.25072479 73.04393482 C-14.267926 79.83853902 -14.26875008 86.6330508 -14.26351189 93.42767113 C-14.25947144 98.95001233 -14.26091225 104.4723262 -14.26626015 109.9946661 C-14.26738278 111.17335531 -14.26738278 111.17335531 -14.26852809 112.37585642 C-14.27005956 113.97216237 -14.27159791 115.56846831 -14.27314306 117.16477425 C-14.28687286 132.13657492 -14.28142703 147.10832335 -14.26995785 162.08012284 C-14.26002476 175.77837309 -14.27296656 189.47648829 -14.29689204 203.17471772 C-14.32127195 217.23905339 -14.33089366 231.30332613 -14.32423931 245.36768252 C-14.32074465 253.26416995 -14.32299544 261.16055349 -14.34049034 269.05702496 C-14.35519849 275.77907666 -14.35586604 282.50095132 -14.33841943 289.22299951 C-14.3298955 292.65266476 -14.32779336 296.08201357 -14.34307098 299.51166248 C-14.35620671 303.22960976 -14.34479776 306.94669179 -14.32707977 310.66460133 C-14.33668478 311.74874299 -14.34628979 312.83288466 -14.35618585 313.94987911 C-14.298501 319.81662751 -13.98833585 323.62602598 -9.82587433 328.13422108 C-5.82434175 331.07525089 -2.96771039 331.51030652 1.9570837 331.51453781 C2.96593513 331.52152769 2.96593513 331.52152769 3.9951674 331.52865878 C6.25321468 331.5406281 8.5106624 331.53120628 10.7687149 331.52190113 C12.4021787 331.52607321 14.0356396 331.53155004 15.6690951 331.53822094 C20.16129546 331.55271079 24.6533129 331.54841981 29.14552343 331.54105413 C33.98883067 331.53633351 38.8320977 331.54882248 43.67539215 331.55907154 C53.16509752 331.57628651 62.65473676 331.57709398 72.1444537 331.57185864 C79.85596112 331.56782079 87.56744897 331.56925591 95.27895546 331.5746069 C96.92390536 331.57572953 96.92390536 331.57572953 98.60208656 331.57687484 C100.82973651 331.57840628 103.05738645 331.57994463 105.28503639 331.58148981 C126.18556583 331.59522457 147.08605787 331.58977026 167.98658646 331.5783046 C187.11670418 331.56837075 206.2467252 331.58131379 225.37682801 331.60523879 C245.0098608 331.62960819 264.64284851 331.639243 284.27589613 331.63258606 C295.30228809 331.62908909 306.32860565 331.6313574 317.35498619 331.64883709 C326.74134081 331.66353206 336.12756865 331.66422996 345.51392072 331.64676618 C350.30453357 331.63823155 355.09491968 331.63616652 359.88552094 331.65141773 C364.2694363 331.66520166 368.65292934 331.66058327 373.03681988 331.6411785 C374.62424859 331.63739875 376.21171062 331.64039696 377.79910981 331.65079015 C379.95502658 331.66390385 382.10947352 331.65242936 384.2653265 331.63479233 C385.46329182 331.63468499 386.66125714 331.63457765 387.89552444 331.63446707 C392.68772617 330.90327729 395.80376168 328.64484534 399.02531624 325.0935564 C400.84941144 320.39468363 400.5858324 315.78073261 400.5550766 310.78485584 C400.55975657 309.62438268 400.56443654 308.46390951 400.56925833 307.26827049 C400.57915377 304.05105736 400.57559266 300.83418378 400.56629968 297.61697912 C400.55951443 294.14589123 400.5699878 290.67484939 400.57823944 287.20377064 C400.5915846 280.40548506 400.58869557 273.6072988 400.58000152 266.80900931 C400.57322845 261.28427709 400.57230662 255.75957272 400.57557297 250.23483753 C400.57603267 249.448756 400.57649237 248.66267448 400.576966 247.8527723 C400.57792516 246.25590061 400.5788978 244.65902894 400.57988377 243.06215727 C400.58843995 228.08561441 400.57859995 213.10912663 400.56248267 198.1325928 C400.54907927 185.27991787 400.5514073 172.42732423 400.56523895 159.57465076 C400.58129073 144.65197727 400.58761596 129.72935206 400.57840216 114.80667114 C400.57744651 113.21564898 400.57650339 111.6246268 400.57557297 110.03360462 C400.57487873 108.8593614 400.57487873 108.8593614 400.57417046 107.66139609 C400.57157937 102.14281466 400.57595415 96.62426383 400.58301163 91.10568714 C400.59142237 84.38106615 400.58915551 77.65655022 400.5731694 70.93194127 C400.56528087 67.50042675 400.56220483 64.06908745 400.57211685 60.6375742 C400.58028181 56.91940195 400.57007117 53.20172667 400.5550766 49.48358631 C400.56176876 48.3965318 400.56846093 47.30947729 400.57535589 46.18948174 C400.63875821 39.09678433 400.63875821 39.09678433 397.17412567 33.13422108 C392.73628154 29.66856337 389.87864858 28.63389932 384.26811981 28.63085651 C383.25753761 28.62213587 383.25753761 28.62213587 382.22653961 28.61323905 C379.97042117 28.59864836 377.7153923 28.61251876 375.45928192 28.62628651 C373.82495315 28.62167719 372.19062852 28.61532407 370.55631256 28.60737753 C366.06631634 28.59066515 361.5766598 28.59893921 357.08666229 28.6113224 C352.24404844 28.62036277 347.4014935 28.6064082 342.5588913 28.59540272 C333.07264284 28.57760208 323.58652086 28.58146437 314.10026741 28.59305328 C306.39164058 28.60208125 298.68304924 28.60331436 290.97441864 28.59895802 C289.87792087 28.59834508 288.78142309 28.59773215 287.65169811 28.59710065 C285.42428969 28.59582176 283.19688128 28.59452491 280.96947289 28.59321028 C260.07560106 28.58179996 239.18179939 28.59492529 218.28793907 28.61641175 C200.3541328 28.63428313 182.42043008 28.63117915 164.48662567 28.6127367 C143.66829472 28.59133799 122.85002529 28.58289863 102.03168488 28.59518576 C99.81240083 28.59645997 97.59311677 28.59771746 95.3738327 28.59895802 C94.28185924 28.59957512 93.18988577 28.60019222 92.0648222 28.60082802 C84.36409976 28.60428392 76.66341629 28.59844741 68.96269989 28.5890398 C59.58002265 28.57782955 50.1974793 28.58083938 40.81481743 28.60216278 C36.02622737 28.61268629 31.23786064 28.61677286 26.44927216 28.60356617 C22.06723952 28.59166338 17.68563764 28.59816979 13.30364418 28.61947638 C11.71692138 28.62395143 10.13016232 28.62165594 8.54346275 28.61197323 C6.38849976 28.5998296 4.235017 28.6122613 2.08013153 28.63085651 C0.88270828 28.63150592 -0.31471497 28.63215533 -1.54842377 28.63282442 C-6.33928433 29.3657482 -9.45641202 31.62393654 -12.67664433 35.17530632 Z " fill="#BAB5B5" transform="translate(62.82587432861328,75.86577892303467)"/>
<path d="M0 0 C0.94746094 0.51691406 1.89492188 1.03382813 2.87109375 1.56640625 C9.07436191 5.1180434 14.55709699 9.38203698 20 14 C20.825 14.68964844 21.65 15.37929687 22.5 16.08984375 C44.99339829 35.52554571 59.20259285 63.58817751 63 93 C63.32178514 98.16690969 63.39071687 103.3245951 63.375 108.5 C63.37412384 109.2058725 63.37324768 109.911745 63.37234497 110.63900757 C63.32529823 122.15373814 62.47458199 132.96801748 59 144 C58.75330566 144.79148437 58.50661133 145.58296875 58.25244141 146.3984375 C47.87240255 178.71737985 25.55755799 205.16247463 -4.53125 220.8125 C-19.78088994 228.42419635 -36.89977306 233.33267407 -54 234 C-54.96808594 234.0515625 -55.93617188 234.103125 -56.93359375 234.15625 C-88.41016367 235.04604703 -119.06905942 224.44493742 -143 204 C-144.00289062 203.17113281 -145.00578125 202.34226562 -146.0390625 201.48828125 C-170.13239036 180.6634281 -184.46316039 149.50692163 -187 118 C-188.95565412 85.44634892 -179.11943809 53.91583255 -158 29 C-157.36239746 28.23695557 -157.36239746 28.23695557 -156.71191406 27.45849609 C-136.02874181 2.90792857 -105.45951285 -12.20766141 -73.6875 -15.625 C-47.54013928 -17.6108755 -22.92240698 -12.66406247 0 0 Z M-133.0390625 43.6953125 C-151.98591165 65.96352166 -159.83711098 90.95662691 -158 120 C-156.18384863 135.33835808 -150.51837312 150.16202632 -142 163 C-138.36989175 161.78996392 -137.737833 160.601591 -135.5 157.5625 C-126.67398115 146.3221173 -116.15248098 139.16645679 -104 132 C-105.24891426 129.46314291 -106.54992577 126.95849376 -107.875 124.4609375 C-115.42905543 110.0552832 -115.42905543 110.0552832 -116 102 C-116.07992187 100.94683594 -116.15984375 99.89367187 -116.2421875 98.80859375 C-116.86618584 82.38275501 -111.57844969 67.91383017 -100.5625 55.75 C-88.1782701 43.97358506 -72.83388412 40.37317396 -56.25390625 40.6875 C-41.69087712 41.31174129 -28.83478494 48.41572401 -19 59 C-8.01610873 73.47876576 -5.50638246 88.23415792 -7 106 C-8.64044778 115.72955236 -13.28966295 124.08451839 -19 132 C-18.02160156 132.556875 -17.04320312 133.11375 -16.03515625 133.6875 C-8.96040769 137.78321701 -2.52482785 141.8128825 3.36328125 147.56640625 C4.88811686 149.21962861 4.88811686 149.21962861 7 149 C7.24492187 149.56203125 7.48984375 150.1240625 7.7421875 150.703125 C9.22926539 153.41865854 11.04062782 155.46391438 13.125 157.75 C13.84945312 158.54921875 14.57390625 159.3484375 15.3203125 160.171875 C15.87460937 160.77515625 16.42890625 161.3784375 17 162 C21.07646103 160.64117966 21.98922814 158.05106858 23.875 154.4375 C24.22578613 153.76928223 24.57657227 153.10106445 24.93798828 152.41259766 C36.26978058 130.04598417 38.46241338 103.61918343 30.67578125 79.7578125 C26.56355312 67.9839557 21.07422604 57.53023402 13 48 C12.3090625 47.175 11.618125 46.35 10.90625 45.5 C-4.83282937 27.32247171 -27.10720268 15.77305005 -51 13 C-81.97840046 11.29020701 -111.31505205 20.87135216 -133.0390625 43.6953125 Z M-81 76 C-87.01229219 84.96673553 -89.60563219 92.38261625 -87.57421875 103.28515625 C-85.36512692 110.10216968 -80.43535638 115.79012104 -74.3125 119.4375 C-67.39861421 122.69876688 -59.51007172 123.49921005 -52.16796875 121.05859375 C-43.8773993 117.09353879 -37.98552707 111.36092308 -34.75 102.625 C-33.21644713 95.21282777 -33.55800832 88.79188993 -37 82 C-42.17789724 74.5962021 -48.13109355 69.89923537 -57 68 C-65.4684607 67.25715257 -75.07677385 69.56906875 -81 76 Z M-113 174 C-117.85413783 179.42076893 -117.85413783 179.42076893 -120 186 C-98.83263619 201.7667864 -72.62654895 207.73168299 -46.59765625 204.5390625 C-30.39769793 202.0634709 -15.0172174 194.83523092 -2 185 C-12.5614515 168.48368755 -25.87154377 157.36651576 -45.1875 152.125 C-70.82083462 146.96744954 -95.31965993 154.86394331 -113 174 Z " fill="#BAB6B6" transform="translate(262,147)"/>
<path d="M0 0 C1.79755486 -0.01441132 1.79755486 -0.01441132 3.63142395 -0.02911377 C4.92311996 -0.03336365 6.21481598 -0.03761353 7.5456543 -0.04199219 C8.89080302 -0.04774961 10.23595174 -0.05350726 11.58110046 -0.05926514 C14.39961121 -0.06975624 17.21809359 -0.07561112 20.03662109 -0.07910156 C23.6344019 -0.08457949 27.23180297 -0.10860002 30.82946491 -0.13707352 C33.60828214 -0.15577039 36.38700922 -0.16090924 39.16588402 -0.16243744 C41.13279487 -0.16690617 43.09965732 -0.18551785 45.06648254 -0.20440674 C51.46984563 -0.18849624 56.47338793 -0.12385272 62.05737305 3.16113281 C65.50976471 6.7952293 66.92732008 9.43793099 67.30737305 14.47363281 C66.94635534 19.79864401 65.47205546 22.85255158 61.55737305 26.47363281 C57.63261973 29.1228413 54.65901892 29.29337834 50.02880859 29.32226562 C48.78709396 29.33187317 47.54537933 29.34148071 46.26603699 29.35137939 C44.9087238 29.35622788 43.55140847 29.36050658 42.1940918 29.36425781 C40.8002777 29.37001245 39.40646361 29.37577014 38.01264954 29.38153076 C35.08980949 29.39203244 32.16699688 29.39788033 29.24414062 29.40136719 C25.50835533 29.40684577 21.77293564 29.43086327 18.03726482 29.45933914 C15.15726175 29.47801267 12.27734585 29.48317365 9.39728737 29.48470306 C8.02063819 29.48772024 6.64399021 29.49571714 5.26740074 29.50888824 C3.33638155 29.5260431 1.40521093 29.5222101 -0.52587891 29.51757812 C-1.62269485 29.52122375 -2.7195108 29.52486938 -3.8495636 29.52862549 C-8.71027607 28.9511151 -11.94813396 27.23626037 -15.25512695 23.66113281 C-18.08660144 19.46635579 -18.28026074 16.1412311 -17.94262695 11.16113281 C-16.20268414 6.49076001 -14.10090324 3.89950988 -9.94262695 1.16113281 C-6.62367726 0.05639229 -3.48170345 0.02256233 0 0 Z " fill="#B9B6B6" transform="translate(369.942626953125,268.8388671875)"/>
<path d="M0 0 C1.24171463 -0.00960754 2.48342926 -0.01921509 3.76277161 -0.02911377 C5.1200848 -0.03396225 6.47740013 -0.03824096 7.8347168 -0.04199219 C9.2285309 -0.04774682 10.62234498 -0.05350452 12.01615906 -0.05926514 C14.9389991 -0.06976681 17.86181172 -0.07561471 20.78466797 -0.07910156 C24.52045326 -0.08458015 28.25587296 -0.10859765 31.99154377 -0.13707352 C34.87154684 -0.15574705 37.75146274 -0.16090802 40.63152122 -0.16243744 C42.0081704 -0.16545462 43.38481838 -0.17345151 44.76140785 -0.18662262 C46.69242704 -0.20377747 48.62359767 -0.19994447 50.5546875 -0.1953125 C51.65150345 -0.19895813 52.7483194 -0.20260376 53.87837219 -0.20635986 C58.73908466 0.37115053 61.97694255 2.08600525 65.28393555 5.66113281 C68.11256028 9.85168797 68.38640542 13.18149436 67.97143555 18.16113281 C66.29740903 22.39390454 63.9975287 25.89645542 59.97143555 28.16113281 C56.63446796 29.22723883 53.51946479 29.29964528 50.02880859 29.32226562 C48.23125374 29.33667694 48.23125374 29.33667694 46.39738464 29.35137939 C44.45984062 29.35775421 44.45984062 29.35775421 42.4831543 29.36425781 C41.13800557 29.37001523 39.79285685 29.37577289 38.44770813 29.38153076 C35.62919739 29.39202187 32.81071501 29.39787674 29.9921875 29.40136719 C26.39440669 29.40684511 22.79700562 29.43086564 19.19934368 29.45933914 C16.42052645 29.47803602 13.64179937 29.48317487 10.86292458 29.48470306 C8.89601372 29.4891718 6.92915128 29.50778347 4.96232605 29.52667236 C-1.44103704 29.51076186 -6.44457934 29.44611835 -12.02856445 26.16113281 C-15.48095611 22.52703633 -16.89851149 19.88433463 -17.27856445 14.84863281 C-16.91754674 9.52362162 -15.44324687 6.46971405 -11.52856445 2.84863281 C-7.60381114 0.19942433 -4.63021032 0.02888729 0 0 Z " fill="#B9B5B5" transform="translate(369.028564453125,213.8388671875)"/>
<path d="M0 0 C0.6445816 -0.00686325 1.28916321 -0.0137265 1.95327759 -0.02079773 C4.07267623 -0.03901881 6.19133126 -0.03523527 8.31079102 -0.02954102 C9.79143004 -0.03410524 11.27206696 -0.03941153 12.75270081 -0.04542542 C15.85198588 -0.05434735 18.95101316 -0.05194419 22.05029297 -0.04199219 C26.0126396 -0.03050565 29.9740946 -0.05071271 33.93632412 -0.07990932 C36.99308378 -0.09829849 40.04963084 -0.09797351 43.10643196 -0.0922718 C44.56680616 -0.09211891 46.02719506 -0.09813706 47.4875164 -0.11056328 C49.53390511 -0.12552372 51.5786607 -0.11476248 53.625 -0.09765625 C54.78684311 -0.09749008 55.94868622 -0.09732391 57.14573669 -0.09715271 C61.10348908 0.51670192 63.26385896 1.92691551 66.37719727 4.40405273 C69.29968696 8.78778728 69.93672127 12.18182873 69.37719727 17.40405273 C67.38875609 22.74144747 64.47052079 25.85739097 59.37719727 28.40405273 C57.34655122 28.51607532 55.3122212 28.56337221 53.27856445 28.58105469 C51.99673279 28.59388992 50.71490112 28.60672516 49.39422607 28.61994934 C47.98751207 28.62811778 46.58079369 28.63556132 45.17407227 28.64233398 C44.46627876 28.64640951 43.75848526 28.65048504 43.02924347 28.65468407 C39.28113598 28.67554837 35.53306512 28.68984705 31.78491211 28.69921875 C27.92008209 28.71026894 24.05583011 28.74465083 20.19120407 28.78439045 C17.21426349 28.81058625 14.23745982 28.81891328 11.26041412 28.82250023 C9.83629717 28.82736058 8.41218611 28.838959 6.98818207 28.85753822 C4.99006607 28.88198215 2.99166861 28.87853971 0.9934082 28.87402344 C-0.14195374 28.87988968 -1.27731567 28.88575592 -2.44708252 28.89179993 C-7.16920764 28.16654609 -10.3132691 25.8942117 -13.43530273 22.34155273 C-15.86751009 18.37321442 -16.00309233 14.96752785 -15.62280273 10.40405273 C-12.70902287 2.67620179 -8.02251092 0.0373331 0 0 Z " fill="#BAB6B6" transform="translate(367.622802734375,324.595947265625)"/>
<path d="M0 0 C1.9227475 -0.01925285 1.9227475 -0.01925285 3.88433838 -0.03889465 C5.29105239 -0.0470631 6.69777077 -0.05450663 8.10449219 -0.0612793 C8.81228569 -0.06535482 9.52007919 -0.06943035 10.24932098 -0.07362938 C13.99742847 -0.09449368 17.74549934 -0.10879237 21.49365234 -0.11816406 C25.35848236 -0.12921425 29.22273434 -0.16359615 33.08736038 -0.20333576 C36.06430096 -0.22953157 39.04110463 -0.2378586 42.01815033 -0.24144554 C43.44226728 -0.24630589 44.86637834 -0.25790431 46.29038239 -0.27648354 C48.28849838 -0.30092746 50.28689584 -0.29748502 52.28515625 -0.29296875 C53.42051819 -0.29883499 54.55588013 -0.30470123 55.72564697 -0.31074524 C60.34839588 0.39924577 63.34354509 2.72661586 66.71386719 5.86450195 C68.93677412 10.19332071 69.61910448 14.72225549 68.24121094 19.43481445 C66.20705776 23.89842183 64.36272277 25.93988161 59.90136719 28.17700195 C56.79689026 28.56468201 56.79689026 28.56468201 53.27856445 28.58105469 C52.63398285 28.58791794 51.98940125 28.59478119 51.32528687 28.60185242 C49.20588822 28.6200735 47.08723319 28.61628996 44.96777344 28.6105957 C43.48713441 28.61515992 42.0064975 28.62046621 40.52586365 28.6264801 C37.42657857 28.63540204 34.3275513 28.63299888 31.22827148 28.62304688 C27.26592486 28.61156034 23.30446986 28.6317674 19.34224033 28.66096401 C16.28548068 28.67935318 13.22893361 28.67902819 10.17213249 28.67332649 C8.71175829 28.6731736 7.25136939 28.67919175 5.79104805 28.69161797 C3.74465934 28.70657841 1.69990376 28.69581717 -0.34643555 28.67871094 C-1.50827866 28.67854477 -2.67012177 28.6783786 -3.86717224 28.6782074 C-7.82492463 28.06435276 -9.98529451 26.65413918 -13.09863281 24.17700195 C-16.02112251 19.79326741 -16.65815681 16.39922596 -16.09863281 11.17700195 C-13.12861109 3.20483837 -8.1872767 0.07118769 0 0 Z " fill="#BAB6B6" transform="translate(368.0986328125,158.822998046875)"/>
</svg>
